<?xml version="1.0" standalone="no"?>
<!DOCTYPE svg PUBLIC "-//W3C//DTD SVG 20010904//EN"
 "http://www.w3.org/TR/2001/REC-SVG-20010904/DTD/svg10.dtd">
<svg version="1.0" xmlns="http://www.w3.org/2000/svg"
 width="555.000000pt" height="555.000000pt" viewBox="0 0 555.000000 555.000000"
 preserveAspectRatio="xMidYMid meet">
<metadata>
Created by potrace 1.14, written by Peter Selinger 2001-2017
</metadata>
<g transform="translate(0.000000,555.000000) scale(0.100000,-0.100000)"
fill="#000000" stroke="none">
<path d="M2750 5369 c0 -39 -204 -466 -326 -680 -41 -72 -74 -135 -74 -140 0
-5 -4 -9 -8 -9 -5 0 -17 -18 -28 -40 -10 -22 -22 -40 -26 -40 -5 0 -8 -4 -8
-9 0 -9 -103 -164 -125 -187 -5 -7 -19 -24 -30 -39 -141 -196 -326 -343 -499
-399 -43 -14 18 -35 279 -96 95 -23 294 -60 318 -60 34 0 57 -10 57 -24 0 -12
-105 -52 -215 -81 -233 -63 -459 -95 -677 -97 -156 -1 -178 -3 -178 -17 0 -17
63 -63 145 -104 87 -45 205 -97 218 -97 7 0 17 -4 22 -8 40 -34 393 -136 511
-148 74 -7 108 -19 99 -35 -4 -5 -21 -9 -38 -9 -18 0 -48 -4 -67 -10 -47 -12
-304 -51 -535 -80 -155 -19 -419 -32 -567 -27 -87 2 -158 2 -158 -2 1 -14 18
-30 73 -64 31 -21 59 -37 61 -37 3 0 56 -25 119 -55 142 -67 175 -80 362 -142
170 -56 257 -79 364 -93 79 -11 90 -15 75 -29 -32 -29 -318 -98 -499 -121 -49
-6 -119 -15 -155 -21 -62 -9 -437 -27 -529 -25 -24 1 -46 -4 -48 -10 -3 -9 19
-21 102 -54 90 -36 241 -85 370 -120 17 -5 57 -16 90 -25 33 -9 87 -23 120
-31 33 -8 76 -19 95 -24 37 -10 185 -37 359 -66 112 -18 355 -24 434 -11 47 8
49 7 82 -27 32 -34 95 -152 128 -241 19 -52 39 -127 61 -235 17 -83 36 -304
36 -423 0 -134 -29 -476 -51 -587 -5 -30 -15 -80 -21 -110 -5 -30 -16 -82 -24
-116 -8 -33 -14 -72 -14 -87 l0 -27 340 0 340 0 0 27 c0 15 -6 54 -14 87 -8
34 -19 86 -24 116 -6 30 -16 80 -21 110 -22 116 -51 447 -51 583 0 122 19 343
36 427 22 108 42 183 61 235 33 89 96 207 128 241 33 34 35 35 82 27 79 -13
322 -7 434 11 174 29 322 56 359 66 19 5 62 16 95 24 33 8 87 22 120 31 33 9
74 20 90 25 168 45 270 79 413 137 71 29 76 48 11 47 -92 -2 -467 16 -529 25
-36 6 -105 15 -155 21 -206 26 -488 97 -499 127 -3 7 -2 13 2 13 29 1 160 23
217 36 303 73 833 303 835 364 0 3 -120 5 -268 6 -245 0 -340 6 -532 35 -36 5
-144 20 -240 34 -96 14 -193 30 -215 35 -22 5 -54 10 -72 10 -30 0 -52 15 -40
26 3 3 38 10 79 15 219 27 514 124 773 256 108 55 145 81 145 102 0 18 -11 19
-191 20 -105 1 -194 3 -197 5 -4 2 -59 11 -122 20 -174 25 -265 46 -447 104
-62 20 -113 41 -113 48 0 15 23 24 58 24 26 0 253 42 322 60 19 5 85 21 145
36 61 15 119 33 129 40 19 13 19 13 0 20 -68 22 -108 41 -174 82 -92 57 -245
206 -325 317 -11 15 -25 32 -30 39 -22 23 -125 178 -125 187 0 5 -3 9 -7 9 -5
0 -17 18 -27 40 -11 22 -23 40 -28 40 -4 0 -8 4 -8 9 0 5 -33 68 -74 140 -122
214 -326 641 -326 680 0 6 -9 11 -20 11 -11 0 -20 -5 -20 -11z"/>
</g>
</svg>
